<svg width="32" height="32" viewBox="0 0 32 32" fill="none" xmlns="http://www.w3.org/2000/svg">
  <!-- Background circle -->
  <circle cx="16" cy="16" r="16" fill="#7c3aed"/>
  
  <!-- Sun rays -->
  <g stroke="#fbbf24" stroke-width="1.5" stroke-linecap="round">
    <line x1="16" y1="4" x2="16" y2="6"/>
    <line x1="16" y1="26" x2="16" y2="28"/>
    <line x1="4" y1="16" x2="6" y2="16"/>
    <line x1="26" y1="16" x2="28" y2="16"/>
    <line x1="7.76" y1="7.76" x2="9.17" y2="9.17"/>
    <line x1="22.83" y1="22.83" x2="24.24" y2="24.24"/>
    <line x1="7.76" y1="24.24" x2="9.17" y2="22.83"/>
    <line x1="22.83" y1="9.17" x2="24.24" y2="7.76"/>
  </g>
  
  <!-- Central sun/translation symbol -->
  <circle cx="16" cy="16" r="6" fill="#fbbf24"/>
  
  <!-- Translation arrows -->
  <g stroke="#7c3aed" stroke-width="1.2" fill="none">
    <path d="M12 14 L20 14 M18 12 L20 14 L18 16"/>
    <path d="M20 18 L12 18 M14 16 L12 18 L14 20"/>
  </g>
</svg> 